<mxfile host="app.diagrams.net" modified="2024-03-10T18:55:46.583Z" agent="Mozilla/5.0 (Macintosh; Intel Mac OS X 10_15_7) AppleWebKit/537.36 (KHTML, like Gecko) Chrome/122.0.0.0 Safari/537.36" version="24.0.4" etag="75am9ZJhR_rknBhVwtEK" type="github">
  <diagram name="PÃ¡gina-1" id="16C3HH7n7JPRslq_bY8W">
    <mxGraphModel>
      <root>
        <mxCell id="0" />
        <mxCell id="1" parent="0" />
      </root>
    </mxGraphModel>
  </diagram>
</mxfile>
